<svg version="1.2" xmlns="http://www.w3.org/2000/svg" viewBox="0 0 256 256" width="256" height="256">
	<title>tear_drop_icon-svg</title>
	<style>
		.s0 { fill: #000000 } 
	</style>
	<g id="Layer 1">
		<path fill-rule="evenodd" class="s0" d="m256 128c0 16.8-3.3 33.4-9.8 49-6.4 15.5-15.9 29.6-27.7 41.5-11.9 11.8-26 21.3-41.5 27.7-15.6 6.5-32.2 9.8-49 9.8h-107.9c-2.7 0-5.3-0.5-7.7-1.5-2.4-1-4.7-2.5-6.5-4.4-1.9-1.8-3.4-4.1-4.4-6.5-1-2.4-1.5-5-1.5-7.7v-107.9c0-33.9 13.5-66.5 37.5-90.5 24-24 56.6-37.5 90.5-37.5 33.9 0 66.5 13.5 90.5 37.5 24 24 37.5 56.6 37.5 90.5z"/>
	</g>
</svg>